<svg xmlns="http://www.w3.org/2000/svg" viewBox="0 0 480 320" fill="none" role="img" aria-labelledby="paints-title">
  <title id="paints-title">Paints department illustration</title>
  <rect width="480" height="320" fill="#F8FAFC"/>
  <rect x="32" y="32" width="416" height="256" rx="24" fill="#FFFFFF" stroke="#E2E8F0" stroke-width="2"/>
  <circle cx="120" cy="108" r="36" fill="#2563EB" opacity="0.12"/>
  <circle cx="360" cy="88" r="28" fill="#0F172A" opacity="0.06"/>
  <rect x="88" y="148" width="72" height="96" rx="8" fill="#0F172A"/>
  <rect x="96" y="140" width="56" height="16" rx="4" fill="#1E293B"/>
  <rect x="104" y="168" width="40" height="28" rx="4" fill="#2563EB" opacity="0.85"/>
  <rect x="176" y="160" width="64" height="84" rx="8" fill="#DC2626"/>
  <rect x="184" y="152" width="48" height="16" rx="4" fill="#991B1B"/>
  <rect x="192" y="180" width="32" height="24" rx="4" fill="#FFFFFF" opacity="0.9"/>
  <rect x="256" y="156" width="72" height="88" rx="8" fill="#16A34A"/>
  <rect x="264" y="148" width="56" height="16" rx="4" fill="#15803D"/>
  <rect x="272" y="176" width="40" height="28" rx="4" fill="#FFFFFF" opacity="0.85"/>
  <path d="M340 220 L340 120 L352 112 L364 120 L364 220 Z" fill="#64748B"/>
  <rect x="332" y="220" width="40" height="12" rx="4" fill="#475569"/>
  <ellipse cx="352" cy="112" rx="20" ry="8" fill="#94A3B8"/>
  <path d="M388 200 C388 176 404 160 428 160 C452 160 468 176 468 200" stroke="#2563EB" stroke-width="8" stroke-linecap="round"/>
  <circle cx="404" cy="188" r="10" fill="#2563EB"/>
  <circle cx="428" cy="176" r="10" fill="#0F172A"/>
  <circle cx="452" cy="188" r="10" fill="#16A34A"/>
  <path d="M56 248 L120 216 L184 248" stroke="#E2E8F0" stroke-width="2" fill="none"/>
</svg>
